<?xml version="1.0" standalone="no" ?>
<!DOCTYPE svg PUBLIC "-//W3C//DTD SVG 1.1//EN" "http://www.w3.org/Graphics/SVG/1.1/DTD/svg11.dtd">
<svg t="1586937544419" class="icon" viewBox="0 0 1024 1024" version="1.1" xmlns="http://www.w3.org/2000/svg" p-id="1152" xmlns:xlink="http://www.w3.org/1999/xlink">
    <path d="M810.666667 938.666667h-170.666667c-25.6 0-42.666667-17.066667-42.666667-42.666667s17.066667-42.666667 42.666667-42.666667h170.666667c25.6 0 42.666667-17.066667 42.666666-42.666666V213.333333c0-25.6-17.066667-42.666667-42.666666-42.666666h-170.666667c-25.6 0-42.666667-17.066667-42.666667-42.666667s17.066667-42.666667 42.666667-42.666667h170.666667c72.533333 0 128 55.466667 128 128v597.333334c0 72.533333-55.466667 128-128 128z" p-id="1153"></path>
    <path d="M426.666667 768c-12.8 0-21.333333-4.266667-29.866667-12.8-17.066667-17.066667-17.066667-42.666667 0-59.733333l183.466667-183.466667-183.466667-183.466667c-17.066667-17.066667-17.066667-42.666667 0-59.733333s42.666667-17.066667 59.733333 0l213.333334 213.333333c17.066667 17.066667 17.066667 42.666667 0 59.733334l-213.333334 213.333333c-8.533333 8.533333-17.066667 12.8-29.866666 12.8z" p-id="1154"></path>
    <path d="M640 554.666667H128c-25.6 0-42.666667-17.066667-42.666667-42.666667s17.066667-42.666667 42.666667-42.666667h512c25.6 0 42.666667 17.066667 42.666667 42.666667s-17.066667 42.666667-42.666667 42.666667z" p-id="1155"></path>
</svg>
