<?xml version="1.0" standalone="no"?><!DOCTYPE svg PUBLIC "-//W3C//DTD SVG 1.1//EN" "http://www.w3.org/Graphics/SVG/1.1/DTD/svg11.dtd"><svg t="1586108632918" class="icon" viewBox="0 0 1024 1024" version="1.1" xmlns="http://www.w3.org/2000/svg" p-id="4312" xmlns:xlink="http://www.w3.org/1999/xlink" width="200" height="200"><defs><style type="text/css"></style></defs><path d="M864 120.992l-38.016 8-512 96L288 228.992v429.024A125.76 125.76 0 0 0 224 640c-70.4 0-128 57.6-128 128s57.6 128 128 128 128-57.6 128-128V409.984l448-83.968v235.968A125.76 125.76 0 0 0 736 544c-70.4 0-128 57.6-128 128s57.6 128 128 128 128-57.6 128-128z m-64 76.992v64l-448 84.032v-64zM736 608c35.744 0 64 28.256 64 64s-28.256 64-64 64-64-28.256-64-64 28.256-64 64-64zM224 704c35.744 0 64 28.256 64 64s-28.256 64-64 64-64-28.256-64-64 28.256-64 64-64z" p-id="4313"></path></svg>