<?xml version="1.0" standalone="no"?><!DOCTYPE svg PUBLIC "-//W3C//DTD SVG 1.1//EN" "http://www.w3.org/Graphics/SVG/1.1/DTD/svg11.dtd"><svg t="1587063841353" class="icon" viewBox="0 0 1024 1024" version="1.1" xmlns="http://www.w3.org/2000/svg" p-id="44468" xmlns:xlink="http://www.w3.org/1999/xlink"><path d="M496.246154 846.769231c-5.907692 0-13.784615-1.969231-21.661539-5.907693-11.815385-5.907692-21.661538-19.692308-23.630769-31.507692L338.707692 354.461538l-96.492307 216.615385c-5.907692 17.723077-21.661538 27.569231-39.384616 27.569231H68.923077c-15.753846 0-29.538462-11.815385-29.538462-27.569231v-29.538461c0-15.753846 13.784615-29.538462 29.538462-29.538462h102.4l135.876923-309.169231c7.876923-15.753846 25.6-27.569231 45.292308-25.6 19.692308 1.969231 35.446154 13.784615 39.384615 33.476923l116.184615 460.8L663.630769 334.769231c7.876923-17.723077 25.6-27.569231 43.323077-25.6 15.753846 1.969231 31.507692 13.784615 39.384616 29.538461l76.8 175.261539h133.907692c15.753846 0 29.538462 13.784615 29.538461 29.538461V571.076923c0 15.753846-13.784615 29.538462-29.538461 29.538462h-161.476923c-17.723077 0-33.476923-9.846154-41.353846-25.6l-49.23077-112.246154-165.415384 360.369231c-9.846154 13.784615-23.630769 23.630769-43.323077 23.630769z" p-id="44469"></path></svg>
