<svg height="512pt" viewBox="0 0 512 512" width="512pt" xmlns="http://www.w3.org/2000/svg"><path d="m30 15h30v63.5625h-30zm0 0" fill="#5b5555"/><path d="m241 91h30v90h-30zm0 0" fill="#faecd8"/><path d="m211 121h90v30h-90zm0 0" fill="#faecd8"/><path d="m256 121h45v30h-45zm0 0" fill="#f4d7af"/><path d="m91 301h30v30h-30zm0 0" fill="#faecd8"/><path d="m31 241h30v30h-30zm0 0" fill="#faecd8"/><path d="m391 301h30v30h-30zm0 0" fill="#ffd13a"/><path d="m451 241h30v30h-30zm0 0" fill="#ffd13a"/><path d="m30 15h30v63.5625h-30zm0 0" fill="#5b5555"/><path d="m502.210938 512h-194.0625l-70.414063-102.394531 66.882813-96.199219zm0 0" fill="#ffd13a"/><path d="m502.210938 512h-194.0625l-70.414063-102.394531 66.882813-96.199219zm0 0" fill="#ffae3a"/><path d="m452 15h30v63.5625h-30zm0 0" fill="#7fe881"/><path d="m203.222656 359.988281-122.507812-174.710937 47.386718-47.386719 149.109376 148.109375zm0 0" fill="#ffd13a"/><path d="m383.898438 137.800781-374.199219 374.199219h194.101562l227.5-326.800781zm0 0" fill="#ffe079"/><path d="m0 0h512v30h-512zm0 0" fill="#766e6e"/><path d="m91 301h30v30h-30zm0 0" fill="#faecd8"/><path d="m31 241h30v30h-30zm0 0" fill="#faecd8"/><path d="m391 301h30v30h-30zm0 0" fill="#f4d7af"/><path d="m451 241h30v30h-30zm0 0" fill="#f4d7af"/><path d="m452 15h30v63.5625h-30zm0 0" fill="#463f3f"/><path d="m256 0h256v30h-256zm0 0" fill="#5b5555"/><path d="m256 307.210938 21.210938-21.210938-21.210938-21.210938zm0 0" fill="#fdbf00"/><path d="m431.300781 185.199219-175.300781 250.800781v-171.300781l127.898438-126.898438zm0 0" fill="#ffd13a"/><path d="m256 91h15v90h-15zm0 0" fill="#f4d7af"/><path d="m430.699219 227.113281-84.8125-84.8125 63.707031-63.707031c16.332031-16.320312 41.453125-21.871094 62.679688-13.945312 8.277343 2.914062 15.820312 7.632812 22.132812 13.945312 23.378906 23.378906 23.378906 61.421875 0 84.8125zm0 0" fill="#5b5555"/><path d="m81.300781 227.113281-63.707031-63.707031c-23.378906-23.394531-23.378906-61.433594 0-84.8125 6.3125-6.3125 13.855469-11.03125 22.441406-14.046875 20.226563-7.632813 46.039063-2.273437 62.355469 14.03125l63.722656 63.722656zm0 0" fill="#766e6e"/></svg>