<?xml version="1.0" standalone="no" ?>
<!DOCTYPE svg PUBLIC "-//W3C//DTD SVG 1.1//EN" "http://www.w3.org/Graphics/SVG/1.1/DTD/svg11.dtd">
<svg t="1587339626373" class="icon" viewBox="0 0 1024 1024" version="1.1" xmlns="http://www.w3.org/2000/svg" p-id="6438" xmlns:xlink="http://www.w3.org/1999/xlink">
    <path d="M512 981.333333C252.8 981.333333 42.666667 771.2 42.666667 512S252.8 42.666667 512 42.666667s469.333333 210.133333 469.333333 469.333333-210.133333 469.333333-469.333333 469.333333z m0-85.333333c212.074667 0 384-171.925333 384-384S724.074667 128 512 128 128 299.925333 128 512s171.925333 384 384 384z m0-444.330667l140.501333-140.501333a42.666667 42.666667 0 0 1 60.330667 60.330667L572.330667 512l140.501333 140.501333a42.666667 42.666667 0 0 1-60.330667 60.330667L512 572.330667l-140.501333 140.501333a42.666667 42.666667 0 0 1-60.330667-60.330667L451.669333 512l-140.501333-140.501333a42.666667 42.666667 0 0 1 60.330667-60.330667L512 451.669333z" fill="" p-id="6439"></path>
</svg>
