<?xml version="1.0" standalone="no"?><!DOCTYPE svg PUBLIC "-//W3C//DTD SVG 1.1//EN" "http://www.w3.org/Graphics/SVG/1.1/DTD/svg11.dtd"><svg t="1587062942548" class="icon" viewBox="0 0 1024 1024" version="1.1" xmlns="http://www.w3.org/2000/svg" p-id="19630" xmlns:xlink="http://www.w3.org/1999/xlink"><path d="M815.786667 94.293333a42.666667 42.666667 0 0 0-36.693334-8.96l-341.333333 85.333334a42.666667 42.666667 0 0 0-32.426667 42.666666v441.6A147.2 147.2 0 0 0 341.333333 640a149.333333 149.333333 0 1 0 149.333334 149.333333v-329.386666L799.573333 384h2.986667l8.106667-6.4 6.4-4.266667a39.68 39.68 0 0 0 5.546666-6.4 33.28 33.28 0 0 0 4.266667-6.4 23.466667 23.466667 0 0 0 2.56-7.68 24.746667 24.746667 0 0 0 0-8.106666 10.24 10.24 0 0 0 0-3.413334V128a42.666667 42.666667 0 0 0-13.653333-33.706667zM341.333333 853.333333a64 64 0 1 1 64-64A64 64 0 0 1 341.333333 853.333333z m405.333334-545.28l-256 64V246.613333l256-64z" p-id="19631"></path></svg>
