<?xml version="1.0" standalone="no" ?>
<!DOCTYPE svg PUBLIC "-//W3C//DTD SVG 1.1//EN" "http://www.w3.org/Graphics/SVG/1.1/DTD/svg11.dtd">
<svg t="1586960336365" class="icon" viewBox="0 0 1024 1024" version="1.1" xmlns="http://www.w3.org/2000/svg" p-id="1668" xmlns:xlink="http://www.w3.org/1999/xlink">
    <path d="M659.456 1024a32 32 0 0 1-32-32v-95.573333a31.872 31.872 0 0 1 32-32 31.573333 31.573333 0 0 1 5.290667 0.426666l42.965333 7.168a95.872 95.872 0 0 0 111.786667-94.677333V672.426667c0-14.72 9.984-27.52 24.277333-31.061334l39.850667-9.898666a32 32 0 0 0 18.816-48.810667l-77.653334-116.437333a31.786667 31.786667 0 0 1-5.376-17.749334V416.426667c0-122.197333-89.173333-228.650667-224-270.250667v190.848a191.317333 191.317333 0 0 1 64 142.976c0 105.856-86.144 192-192 192a192.213333 192.213333 0 0 1-192-192c0-54.826667 23.210667-106.496 64-142.976V152.533333a351.658667 351.658667 0 0 0-213.333333 414.976 353.621333 353.621333 0 0 0 165.290667 217.472 32 32 0 0 1 16.042666 27.733334v179.2a32 32 0 0 1-64 0V830.72a419.285333 419.285333 0 0 1-179.328-247.338667A413.44 413.44 0 0 1 339.456 84.778667V64c0-35.285333 28.714667-64 64-64h128c35.285333 0 64 28.714667 64 64v15.616c170.24 44.842667 288 181.76 288 336.810667v22.314666l72.234667 108.373334a96.128 96.128 0 0 1-56.576 146.432l-15.658667 3.882666v79.914667a158.976 158.976 0 0 1-66.986667 130.176 159.786667 159.786667 0 0 1-119.338666 27.605333l-5.717334-0.938666v57.770666a32 32 0 0 1-31.957333 32.042667z m-192-672c-70.570667 0-128 57.429333-128 128s57.429333 128 128 128 128-57.429333 128-128-57.429333-128-128-128z m0-64c22.016 0 43.477333 3.712 64 11.093333V64h-128v235.093333c20.522667-7.381333 41.941333-11.093333 64-11.093333z" p-id="1669"></path>
</svg>
