<?xml version="1.0" standalone="no"?><!DOCTYPE svg PUBLIC "-//W3C//DTD SVG 1.1//EN" "http://www.w3.org/Graphics/SVG/1.1/DTD/svg11.dtd"><svg t="1586088425891" class="icon" viewBox="0 0 1024 1024" version="1.1" xmlns="http://www.w3.org/2000/svg" p-id="3693" xmlns:xlink="http://www.w3.org/1999/xlink"><defs><style type="text/css"></style></defs><path d="M512 512q82.016-2.016 136-56T704 320q-2.016-82.016-56-136T512 128q-82.016 2.016-136 56T320 320q2.016 82.016 56 136T512 512z m0 64q-108.992-3.008-180.992-75.008T256 320q3.008-108.992 75.008-180.992T512 64q108.992 3.008 180.992 75.008T768 320q-3.008 108.992-75.008 180.992T512 576z m320 320v-96q-0.992-40.992-28-68T736 704H288q-40.992 0.992-68 28T192 800v96q0 14.016-8.992 23.008T160 928t-23.008-8.992T128 896v-96q2.016-68 47.008-112.992T288 640h448q68 2.016 112.992 47.008T896 800v96q0 14.016-8.992 23.008T864 928t-23.008-8.992T832 896z" p-id="3694"></path></svg>
