<svg id="Layer_1" data-name="Layer 1" xmlns="http://www.w3.org/2000/svg" height="48" width="48" viewBox="0 0 254.43 238.95">
    <path d="M146.42,287h-2.51a10.09,10.09,0,0,1-10.09-10.09v-82.2a10.09,10.09,0,0,1,10.09-10.09h2.51a10.09,10.09,0,0,1,10.09,10.09v82.2A10.09,10.09,0,0,1,146.42,287ZM375.65,184.62h2.51a10.09,10.09,0,0,1,10.09,10.09v82.2A10.09,10.09,0,0,1,378.16,287h-2.51a10.09,10.09,0,0,1-10.09-10.09v-82.2A10.09,10.09,0,0,1,375.65,184.62Zm-171.29,31.6h-2.51a10.09,10.09,0,0,1-10.09-10.09v-43A10.08,10.08,0,0,1,201.85,153h2.51a10.09,10.09,0,0,1,10.09,10.09v43A10.09,10.09,0,0,1,204.36,216.22Zm0,102.42h-2.51a10.09,10.09,0,0,1-10.09-10.09V265.49a10.09,10.09,0,0,1,10.09-10.09h2.51a10.09,10.09,0,0,1,10.09,10.09v43.06A10.09,10.09,0,0,1,204.36,318.64ZM320.23,216.22h-2.51a10.09,10.09,0,0,1-10.09-10.09v-43A10.08,10.08,0,0,1,317.72,153h2.51a10.09,10.09,0,0,1,10.09,10.09v43A10.09,10.09,0,0,1,320.23,216.22Zm0,102.42h-2.51a10.09,10.09,0,0,1-10.09-10.09V265.49a10.09,10.09,0,0,1,10.09-10.09h2.51a10.09,10.09,0,0,1,10.09,10.09v43.06A10.09,10.09,0,0,1,320.23,318.64ZM262.29,216.22h-2.51a10.09,10.09,0,0,1-10.09-10.09V126.42a10.09,10.09,0,0,1,10.09-10.09h2.51a10.09,10.09,0,0,1,10.09,10.09v79.71A10.09,10.09,0,0,1,262.29,216.22Zm0,139.07h-2.51a10.09,10.09,0,0,1-10.09-10.09V265.49a10.09,10.09,0,0,1,10.09-10.09h2.51a10.09,10.09,0,0,1,10.09,10.09V345.2A10.09,10.09,0,0,1,262.29,355.29Zm-54.23-109.7h-9.91a4.82,4.82,0,0,1-4.83-4.82v-9.92a4.82,4.82,0,0,1,4.83-4.82h9.91a4.83,4.83,0,0,1,4.83,4.82v9.92A4.83,4.83,0,0,1,208.06,245.59Zm119-.16H310.84a2.58,2.58,0,0,1-2.23-3.87l8.13-14.08a2.57,2.57,0,0,1,4.46,0l8.13,14.08A2.58,2.58,0,0,1,327.1,245.43Zm-56.28-9.62A9.79,9.79,0,1,1,261,226,9.78,9.78,0,0,1,270.82,235.81Z" transform="translate(-133.82 -116.33)" style="fill: #1db954" />
</svg>
